<?xml version="1.0" encoding="UTF-8"?>
<svg xmlns="http://www.w3.org/2000/svg" viewBox="0 0 149.58 42.64">
  <defs>
    <style>
      .cls-1 {
        fill: #333481;
      }

      .cls-2 {
        fill: #fff;
      }
    </style>
  </defs>
  <g id="_лой_1" data-name="Слой 1"/>
  <g id="_лой_2" data-name="Слой 2">
    <g id="_лой_1-2" data-name="Слой 1">
      <g>
        <rect class="cls-1" y="0" width="149.58" height="42.64"/>
        <polygon class="cls-2" points="57.6 27.97 51.84 10.15 47.85 10.15 55.5 32.5 59.37 32.5 66.85 10.15 63.12 10.15 57.6 27.97"/>
        <polygon class="cls-2" points="16.34 23.35 45.1 32.11 45.1 28.39 20.89 21.57 45.1 14.19 45.1 10.2 16.34 19.47 16.34 23.35"/>
        <path class="cls-2" d="M132.45,22.87h-5.18l2.54-8.18,2.64,8.18Zm3.11,9.63h3.99l-7.65-22.35h-3.88l-7.47,22.35h3.72l1.95-6.28h7.3l2.03,6.28Z"/>
        <polygon class="cls-2" points="70.71 13.33 74.73 13.33 74.73 29.33 70.71 29.33 70.71 32.5 82.45 32.5 82.45 29.33 78.39 29.33 78.39 13.33 82.45 13.33 82.45 10.15 70.71 10.15 70.71 13.33"/>
        <polygon class="cls-2" points="100.07 24.02 100.21 25.13 99.37 23.7 89.91 10.15 87.4 10.15 87.4 32.5 90.93 32.5 90.93 18.58 90.8 17.34 91.67 18.86 101.09 32.5 103.6 32.5 103.6 10.15 100.06 10.15 100.07 24.02"/>
        <polygon class="cls-2" points="121.96 10.15 107.61 10.15 107.61 13.33 112.94 13.33 112.93 32.5 116.6 32.5 116.6 13.33 121.96 13.33 121.96 10.15"/>
        <path class="cls-2" d="M11.97,33.22c-1.01,0-1.82-.81-1.82-1.82V11.97c0-1,.81-1.82,1.82-1.82s1.82,.81,1.82,1.82V31.4c0,1-.81,1.82-1.82,1.82"/>
      </g>
    </g>
  </g>
</svg>