<svg xmlns="http://www.w3.org/2000/svg" id="Layer_2" viewBox="0 0 154.94 42.78"><defs><style>.cls-1{fill:#0055fb;}</style></defs><g id="Layer_1-2"><path d="M38.17,22.68l-.79,1.01-3.1,4.1h10.3l3.02-5.19h-9.43v.07ZM31.97,5.26h11.88L46.95.07h-20.16c-.43,0-.79.36-.79.79v23.98l2.38-3.17.5-.65h3.02v-5.04h10.08l3.02-4.54h-13.03v-6.19Z"></path><path d="M73.02,26.65l-6.12-9.87v-.14c3.17-1.51,4.46-4.46,4.46-7.63,0-5.19-3.46-9-11.09-9h-9.87c-.43,0-.79.36-.79.79v26.21c0,.43.36.79.79.79h4.32c.43,0,.79-.36.79-.79v-9.22h5.19l6.12,9.72c.14.22.43.36.65.36h4.75c.72,0,1.08-.72.79-1.22ZM59.84,13.32h-4.25V5.11h4.61c4.18,0,5.33,1.66,5.33,4.03-.07,2.95-1.73,4.18-5.69,4.18Z"></path><path d="M85.05,0h-9.36c-.43,0-.79.36-.79.79v26.21c0,.43.36.79.79.79h4.32c.43,0,.79-.36.79-.79v-7.63h5.04c7.42,0,11.23-3.53,11.23-9.65,0-5.62-3.74-9.72-12.03-9.72ZM85.34,14.69h-4.54V5.19h4.18c5.4,0,6.19,2.45,6.19,4.61,0,3.17-1.66,4.9-5.83,4.9Z"></path><path class="cls-1" d="M28.81,32.19l3.24-4.32,3.89-5.19h-6.19l-4.39,6.05h-.07l-7.99-12.1c3.17-1.51,4.46-4.46,4.46-7.63C21.75,3.82,18.29,0,10.66,0H0v27.8h5.91v-10.08h5.19l10.3,14.4-8.14,10.66h6.34l5.19-7.13h.07l5.47,7.13h6.48l-7.99-10.59ZM10.23,13.32h-4.25V5.11h4.61c4.18,0,5.33,1.66,5.33,4.03-.07,2.95-1.73,4.18-5.69,4.18Z"></path><path d="M107.31,13.01c-.57,0-1.07-.1-1.5-.3s-.74-.5-.95-.89c-.2-.39-.26-.86-.17-1.4h1.24c-.07.31-.05.59.06.83.11.24.3.43.55.57.26.14.56.21.9.21.37,0,.69-.06.95-.18.26-.12.46-.29.6-.51.14-.22.22-.47.25-.76.02-.19-.01-.37-.09-.51s-.18-.28-.32-.39c-.14-.11-.29-.2-.47-.28-.18-.08-.38-.15-.59-.23-.21-.07-.43-.15-.64-.23-.54-.19-.95-.45-1.23-.78s-.39-.71-.36-1.16c.02-.49.15-.92.41-1.29s.61-.65,1.06-.86c.45-.21.96-.31,1.52-.31.53,0,.98.1,1.35.29s.65.46.83.8c.18.34.24.75.16,1.22h-1.24c.05-.24.02-.46-.07-.67-.09-.2-.24-.36-.45-.47s-.46-.17-.77-.17-.56.05-.79.16c-.23.1-.42.26-.55.46-.14.2-.21.42-.22.67,0,.18.02.33.08.46s.15.23.27.33c.12.09.26.18.42.26.16.08.35.15.55.22.2.07.42.14.65.23.25.09.48.2.7.33s.41.27.56.44c.16.17.28.37.36.6.09.23.11.48.08.77,0,.5-.15.94-.42,1.32s-.64.68-1.1.91c-.47.22-1.01.33-1.64.33Z"></path><path d="M111.29,12.87l1.04-5.89h1.17l-1.04,5.89h-1.17ZM113.23,5.88c-.23,0-.41-.07-.54-.21-.14-.14-.21-.32-.23-.54,0-.21.07-.39.22-.53.14-.14.33-.21.57-.21.21,0,.39.07.54.21.15.14.22.32.22.53.01.22-.05.4-.21.54-.16.14-.34.21-.56.21Z"></path><path d="M113.9,12.87l1.03-5.89h1.05l-.06.89c.23-.32.51-.57.84-.75.33-.18.68-.27,1.06-.27.29,0,.55.04.78.12.23.08.43.21.59.37.16.17.27.37.34.61.26-.35.59-.62.96-.82s.77-.29,1.17-.29c.45,0,.83.09,1.14.28s.53.47.66.85c.13.38.14.85.04,1.41l-.62,3.48h-1.16l.6-3.36c.09-.55.05-.96-.13-1.24-.18-.28-.47-.43-.87-.43-.26,0-.5.07-.74.2-.24.14-.44.33-.62.58-.18.25-.31.56-.39.92l-.58,3.33h-1.17l.57-3.36c.11-.55.07-.96-.11-1.24-.18-.28-.47-.43-.87-.43-.26,0-.52.07-.76.22-.25.15-.46.36-.64.65-.18.28-.31.63-.38,1.03l-.56,3.13h-1.17Z"></path><path d="M123.72,15.44l1.48-8.46h1.08l-.06.91c.16-.19.35-.37.55-.53s.44-.28.71-.38c.26-.1.57-.15.91-.15.51,0,.94.12,1.3.35.36.23.63.55.81.96.18.4.25.86.22,1.37-.02.5-.11.96-.29,1.38-.18.42-.42.79-.72,1.11s-.65.56-1.05.74c-.4.18-.83.26-1.3.26-.3,0-.57-.05-.82-.15s-.46-.22-.64-.38c-.18-.16-.31-.33-.4-.53l-.62,3.48h-1.17ZM127.36,11.99c.4,0,.75-.1,1.07-.3s.57-.48.77-.83c.19-.35.3-.76.33-1.21.02-.35-.04-.66-.16-.93-.12-.27-.29-.48-.52-.64-.23-.16-.5-.23-.83-.23-.4,0-.76.1-1.08.32-.32.21-.58.49-.78.84-.19.35-.3.76-.32,1.21-.02.36.03.67.15.93.12.26.3.47.54.61s.52.22.83.22Z"></path><path d="M131.3,12.87l1.5-8.41h1.17l-1.5,8.41h-1.17Z"></path><path d="M134.34,15.44l1.92-3.11h-.33l-1.36-5.35h1.21l1.1,4.4,2.66-4.4h1.24l-5.25,8.46h-1.2Z"></path><path d="M105.91,27.88c-.57,0-1.07-.1-1.5-.3s-.74-.5-.95-.89c-.2-.39-.26-.86-.17-1.4h1.24c-.07.31-.05.59.06.83.11.24.3.43.55.57.26.14.56.21.9.21.37,0,.69-.06.95-.18.26-.12.46-.29.6-.51.14-.22.22-.47.25-.76.02-.19-.01-.37-.09-.51s-.18-.28-.32-.39c-.14-.11-.29-.2-.47-.28-.18-.08-.38-.15-.59-.23-.21-.07-.43-.15-.64-.23-.54-.19-.95-.45-1.23-.78s-.39-.71-.36-1.16c.02-.49.15-.92.41-1.29s.61-.65,1.06-.86c.45-.21.96-.31,1.52-.31.53,0,.98.1,1.35.29s.65.46.83.8c.18.34.24.75.16,1.22h-1.24c.05-.24.02-.46-.07-.67-.09-.2-.24-.36-.45-.47s-.46-.17-.77-.17-.56.05-.79.16c-.23.1-.42.26-.55.46-.14.2-.21.42-.22.67,0,.18.02.33.08.46s.15.23.27.33c.12.09.26.18.42.26.16.08.35.15.55.22.2.07.42.14.65.23.25.09.48.2.7.33s.41.27.56.44c.16.17.28.37.36.6.09.23.11.48.08.77,0,.5-.15.94-.42,1.32s-.64.68-1.1.91c-.47.22-1.01.33-1.64.33Z"></path><path d="M112.44,27.88c-.5,0-.93-.11-1.3-.33-.37-.22-.65-.53-.83-.92-.19-.4-.27-.86-.25-1.4.02-.49.12-.95.3-1.38.18-.43.42-.8.74-1.12s.67-.56,1.09-.75c.41-.18.86-.27,1.34-.27.53,0,.97.11,1.33.33.36.22.62.51.79.88.17.37.24.78.21,1.23,0,.14-.03.3-.05.47s-.06.32-.1.46h-4.79l.14-.82h3.65c.05-.33.02-.62-.09-.85-.1-.23-.27-.41-.48-.53-.22-.12-.48-.19-.77-.19-.31,0-.61.07-.89.22s-.53.35-.74.63c-.21.28-.35.62-.43,1.05l-.06.33c-.08.4-.07.75.02,1.05.09.3.26.54.49.71s.52.25.87.25c.37,0,.7-.08.97-.25.27-.16.49-.39.64-.67h1.17c-.16.36-.39.68-.68.96s-.62.51-1,.67-.81.25-1.27.25Z"></path><path d="M116.33,27.74l1.03-5.89h1.06l-.09,1.06c.19-.26.4-.47.64-.65.24-.17.52-.31.82-.41.31-.1.64-.15.99-.15l-.21,1.23h-.42c-.24,0-.48.03-.71.09-.23.06-.44.16-.63.29-.19.14-.35.31-.48.53s-.22.49-.29.83l-.55,3.06h-1.17Z"></path><path d="M120.9,27.74l1.04-5.89h1.17l-1.04,5.89h-1.17ZM122.84,20.75c-.23,0-.41-.07-.54-.21-.14-.14-.21-.32-.23-.54,0-.21.07-.39.22-.53.14-.14.33-.21.57-.21.21,0,.39.07.54.21.15.14.22.32.22.53.01.22-.05.4-.21.54-.16.14-.34.21-.56.21Z"></path><path d="M125.66,27.88c-.44,0-.79-.07-1.07-.22-.28-.15-.48-.35-.6-.6-.12-.25-.18-.52-.16-.81,0-.41.13-.77.37-1.07.24-.3.57-.54,1-.7.43-.16.92-.25,1.48-.25h1.52c.06-.35.06-.64,0-.86-.06-.23-.18-.4-.36-.51-.18-.11-.42-.17-.72-.17-.35,0-.66.08-.94.25-.28.17-.48.42-.6.77h-1.18c.12-.43.33-.79.61-1.08.28-.29.62-.52,1.02-.67.39-.16.81-.23,1.26-.23.54,0,.98.1,1.32.29s.58.47.71.83.16.78.07,1.26l-.63,3.65h-1.05l.11-.99c-.11.16-.24.3-.38.44-.14.14-.3.26-.48.37-.17.1-.37.19-.58.24-.21.05-.45.08-.71.08ZM126.04,26.93c.25,0,.49-.05.72-.15s.44-.24.62-.42.33-.37.44-.59c.11-.22.17-.45.2-.69v-.04h-1.38c-.33,0-.61.04-.84.13-.23.09-.41.21-.53.37-.12.16-.19.35-.21.57,0,.25.07.45.25.6.17.15.42.22.74.22Z"></path><path d="M130.34,27.74l1.5-8.41h1.17l-1.5,8.41h-1.17Z"></path><path d="M133.23,27.74l1.04-5.89h1.17l-1.04,5.89h-1.17ZM135.17,20.75c-.23,0-.41-.07-.54-.21-.14-.14-.21-.32-.23-.54,0-.21.07-.39.22-.53.14-.14.33-.21.57-.21.21,0,.39.07.54.21.15.14.22.32.22.53.01.22-.05.4-.21.54-.16.14-.34.21-.56.21Z"></path><path d="M135.68,27.74l.18-.95,3.95-3.97h-3.12l.18-.97h4.46l-.17.95-3.96,3.97h3.25l-.2.97h-4.56Z"></path><path d="M143.79,27.88c-.5,0-.93-.11-1.3-.33-.37-.22-.65-.53-.83-.92-.19-.4-.27-.86-.25-1.4.02-.49.12-.95.3-1.38.18-.43.42-.8.74-1.12s.67-.56,1.09-.75c.41-.18.86-.27,1.34-.27.53,0,.97.11,1.33.33.36.22.62.51.79.88.17.37.24.78.21,1.23,0,.14-.03.3-.05.47s-.06.32-.1.46h-4.79l.14-.82h3.65c.05-.33.02-.62-.09-.85-.1-.23-.27-.41-.48-.53-.22-.12-.48-.19-.77-.19-.31,0-.61.07-.89.22s-.53.35-.74.63c-.21.28-.35.62-.43,1.05l-.06.33c-.08.4-.07.75.02,1.05.09.3.26.54.49.71s.52.25.87.25c.37,0,.7-.08.97-.25.27-.16.49-.39.64-.67h1.17c-.16.36-.39.68-.68.96s-.62.51-1,.67-.81.25-1.27.25Z"></path><path d="M150.25,27.88c-.49,0-.92-.12-1.27-.36-.36-.24-.63-.57-.81-.98-.18-.41-.25-.87-.22-1.38.02-.51.12-.97.3-1.38.18-.41.42-.77.72-1.09s.64-.55,1.03-.72c.39-.17.81-.26,1.25-.26.49,0,.89.1,1.2.29.31.19.54.44.7.75l.61-3.42h1.17l-1.48,8.41h-1.06l.05-.92c-.15.19-.33.36-.53.52-.21.16-.45.29-.72.39-.27.1-.58.15-.93.15ZM150.65,26.86c.41,0,.78-.11,1.09-.32.32-.21.57-.5.76-.86.19-.36.3-.77.32-1.22.02-.35-.03-.65-.14-.91-.11-.26-.28-.46-.51-.6-.23-.14-.51-.22-.84-.22-.4,0-.76.1-1.08.3s-.57.48-.76.83c-.19.35-.3.76-.32,1.21-.02.34.02.65.14.93.12.28.29.49.52.64.23.15.5.23.82.23Z"></path></g></svg>