<svg width="213" height="20" viewBox="0 0 213 20" fill="none" xmlns="http://www.w3.org/2000/svg">
<g clip-path="url(#clip0_764_2536)">
<path d="M0 6.70312L11.554 13.304L0.0595719 20.0035L0 6.70312Z" fill="#7DD7F5"/>
<path d="M11.4945 0L11.554 13.3004L0 6.69959L11.4945 0Z" fill="#7A7EF5"/>
<path d="M11.4922 0L23.0433 6.59792L11.5518 13.3004L11.4922 0Z" fill="#7ED6F6"/>
<path d="M23.0463 6.59375L23.1058 19.8942L11.5547 13.2962L23.0463 6.59375Z" fill="#20A8EB"/>
<path d="M44.9813 18.5512L34.4865 15.4475L32.9565 18.5526H27.9961L36.3856 2.33594H41.5538L49.9432 18.5526H44.9145H44.9784L44.9813 18.5512ZM42.8077 14.1303L38.937 6.34291L36.1095 12.0883L42.8077 14.1303Z" fill="white"/>
<path d="M69.691 14.7519V18.5512H54.0469V2.33594H58.7748V14.7533H69.691V14.7519Z" fill="white"/>
<path d="M69.4336 2.33594V6.11199H87.6059V2.33594H69.4336ZM80.8598 18.5497V9.09652L76.1332 6.11199V18.5497H80.8598Z" fill="white"/>
<path d="M92.168 18.5512V2.33594H96.8959V18.5526H92.168V18.5512Z" fill="white"/>
<path d="M121.6 2.33594V10.9076C121.6 15.8426 118.239 19.0856 112.191 19.0856C106.142 19.0856 102.758 15.8426 102.758 10.9076V2.33594H107.486V10.5372C107.486 13.3635 109.062 15.1934 112.191 15.1934C115.319 15.1934 116.872 13.3635 116.872 10.5372V2.33594H121.6Z" fill="white"/>
<path d="M145.308 13.4799C145.308 16.8159 142.225 19.0859 136.339 19.0859C132.167 19.0859 128.667 17.9502 126.117 15.9126L128.597 12.9934C130.521 14.6157 133.186 15.519 136.432 15.519C139.213 15.519 140.603 15.0092 140.603 13.9432C140.603 12.8772 139.306 12.5534 135.968 12.276C131.147 11.8592 126.767 10.7931 126.767 7.17975C126.767 3.56636 130.521 1.80469 135.666 1.80469C139.143 1.80469 142.341 2.63832 144.566 4.2141L142.178 7.15651C140.371 5.88282 138.191 5.37306 135.666 5.34982C133.766 5.34982 131.471 5.65045 131.471 6.80941C131.471 7.89865 133.349 8.03662 136.246 8.269C141.554 8.70905 145.308 9.75182 145.308 13.4814V13.4799Z" fill="white"/>
<path d="M168.265 2.33594V18.5962H166.313V11.2794H152.928V18.5962H150.977V2.33594H152.928V9.42039H166.313V2.33594H168.265Z" fill="white"/>
<path d="M190.516 2.33594V10.9294C190.516 15.6683 187.542 19.0827 181.941 19.0827C176.34 19.0827 173.344 15.6683 173.344 10.9294V2.33594H175.295V10.8146C175.295 14.8085 177.688 17.2717 181.942 17.2717C186.197 17.2717 188.565 14.8085 188.565 10.8146V2.33594H190.518H190.516Z" fill="white"/>
<path d="M213.001 14.1361C213.001 17.109 210.655 18.5962 206.89 18.5962H195.598V2.33594H206.427C209.726 2.33594 212.073 3.73017 212.073 6.47071C212.073 8.32969 210.982 10.0478 208.587 10.2351C211.118 10.3978 213.001 11.4188 213.001 14.1376V14.1361ZM197.526 9.3986H206.146C208.47 9.3986 210.12 8.79298 210.12 6.75101C210.12 4.70904 208.47 4.10197 206.146 4.10197H197.526V9.40006V9.3986ZM210.98 13.9967C210.98 11.9765 209.33 11.1632 206.541 11.1632H197.526V16.8316H206.541C209.331 16.8316 210.98 15.9936 210.98 13.9967Z" fill="white"/>
</g>
<defs>
<clipPath id="clip0_764_2536">
<rect width="213" height="20" fill="white"/>
</clipPath>
</defs>
</svg>
