<?xml version="1.0" encoding="utf-8"?>
<!-- Generator: Adobe Illustrator 25.2.0, SVG Export Plug-In . SVG Version: 6.00 Build 0)  -->
<svg version="1.1" id="Calque_1" xmlns="http://www.w3.org/2000/svg" xmlns:xlink="http://www.w3.org/1999/xlink" x="0px" y="0px"
	 viewBox="0 0 599 189" style="enable-background:new 0 0 599 189;" xml:space="preserve">
<style type="text/css">
	.st0{fill:#808B94;}
	.st1{fill-rule:evenodd;clip-rule:evenodd;fill:#003D6A;}
</style>
<g>
	<g>
		<g>
			<path class="st0" d="M104.18563,119.11029c2.76852-6.44584,9.24337-15.05663,19.89535-14.88269
				c0.00198,0.00478-0.00199-0.00502,0,0c4.55762,0.15206,6.14101,0.7198,4.3992,5.81597
				c-0.24261,0.70987-0.50687,1.39368-0.89027,1.98423c-1.49461,2.94186-5.09393,7.23589-7.7812,11.23177
				c-4.05721,6.03237-8.48898,12.13906-12.51795,15.84725c-0.02464,0.02267-0.04885,0.0441-0.07349,0.06665
				c-0.55577,0.44469-1.27837,0.68158-2.04236,0.60292c-1.54371-0.15886-2.66647-1.53909-2.50761-3.08279
				c0.06303-0.61284,0.32379-1.15401,0.70551-1.58025c-0.00027-0.00047-0.00423-0.00575-0.00423-0.00575
				c2.86955-2.89557,11.35402-13.6969,11.35402-13.6969c5.18523-6.51933,9.54066-11.39902,9.11314-12.31376
				c-1.10166-2.35709-13.78185,2.03438-15.21538,13.12099l-0.4704,1.311l-1.35014,0.34759
				c-14.51192,3.72911-22.91956,9.21579-24.98948,16.30702c-2.28225,7.81378,0.95146,11.87154,2.23727,13.37578l-0.00069,0.00066
				c0.40451,0.49202,0.62119,1.1385,0.5507,1.8223c-0.13956,1.358-1.35362,2.34538-2.71137,2.20581
				c-0.45652-0.04695-0.86511-0.22318-1.20919-0.47765l-0.00668,0.00722l-0.03326-0.03455
				c-0.19154-0.14758-0.35696-0.32196-0.49765-0.5173l-0.04263-0.04453c-2.57008-3.77397-5.67883-9.80022-3.35563-17.793
				C79.29,129.95009,88.52188,123.35081,104.18563,119.11029z"/>
			<path class="st0" d="M30.63087,119.11029c-2.76852-6.44584-9.24337-15.05663-19.89535-14.88269
				c-0.00198,0.00478,0.002-0.00502,0,0c-4.55761,0.15206-6.141,0.7198-4.3992,5.81597
				c0.24262,0.70987,0.50687,1.39368,0.89027,1.98423c1.4946,2.94186,5.09393,7.23589,7.7812,11.23177
				c4.05721,6.03237,8.48898,12.13906,12.51795,15.84725c0.02463,0.02267,0.04885,0.0441,0.07349,0.06665
				c0.55577,0.44469,1.27837,0.68158,2.04235,0.60292c1.54371-0.15886,2.66647-1.53909,2.50761-3.08279
				c-0.06303-0.61284-0.32379-1.15401-0.70552-1.58025c0.00027-0.00047,0.00424-0.00575,0.00424-0.00575
				c-2.86955-2.89557-11.35402-13.6969-11.35402-13.6969c-5.18523-6.51933-9.54067-11.39902-9.11314-12.31376
				c1.10166-2.35709,13.78185,2.03438,15.21538,13.12099l0.4704,1.311l1.35015,0.34759
				c14.51193,3.72911,22.91955,9.21579,24.98948,16.30702c2.28225,7.81378-0.95147,11.87154-2.23727,13.37578l0.0007,0.00066
				c-0.40451,0.49202-0.62119,1.1385-0.5507,1.8223c0.13956,1.358,1.35362,2.34538,2.71137,2.20581
				c0.45652-0.04695,0.86511-0.22318,1.20919-0.47765l0.00668,0.00722l0.03326-0.03455
				c0.19153-0.14758,0.35696-0.32196,0.49765-0.5173l0.04263-0.04453c2.57008-3.77397,5.67883-9.80022,3.35563-17.793
				C55.52649,129.95009,46.29461,123.35081,30.63087,119.11029z"/>
		</g>
		<path class="st0" d="M284.46014,93.38135c0,36.50697-28.703,64.04803-64.05203,64.04803
			c-35.345,0-64.04398-27.54106-64.04398-64.04803c0-35.20027,29.02061-64.04801,64.04398-64.04801
			C255.42343,29.33333,284.46014,58.18108,284.46014,93.38135 M269.21811,93.38135c0-26.56001-20.10699-48.80595-48.81-48.80595
			c-28.69896,0-48.80191,22.24594-48.80191,48.80595c0,27.52096,22.3786,48.80597,48.80191,48.80597
			C246.83949,142.18732,269.21811,120.90231,269.21811,93.38135"/>
		<path class="st0" d="M314.5712,154.28285h-15.25012V31.92823h17.52576c37.64078,0,49.32465,12.98249,49.32465,35.37719
			c0,25.80013-19.63257,35.69882-42.84344,35.69882h-8.75684V154.28285z M314.5712,89.37845h4.86493
			c15.57578,0,32.46225-2.92699,32.46225-22.39469c0-19.15008-18.17712-21.42171-33.26639-21.42171h-4.06079V89.37845z"/>
		<polygon class="st0" points="412.58316,154.28085 397.32901,154.28085 397.32901,45.88571 368.27621,45.88571 368.27621,31.92622 
			441.63193,31.92622 441.63193,45.88571 412.58316,45.88571 		"/>
		<polygon class="st0" points="453.633,31.92781 519.35358,31.92781 519.35358,45.88731 468.88306,45.88731 468.88306,80.11862 
			517.8941,80.11862 517.8941,94.07812 468.88306,94.07812 468.88306,140.32295 519.35358,140.32295 519.35358,154.28246 
			453.633,154.28246 		"/>
		<polygon class="st0" points="553.43134,140.32498 590.58557,140.32498 590.58557,154.28046 538.18115,154.28046 
			538.18115,31.92984 553.43134,31.92984 		"/>
	</g>
</g>
<path class="st1" d="M41.96622,30.05164l2.63874,4.91266c2.68488,0.47297,5.20742,1.47283,7.44336,2.89737l5.34693-1.99167
	l4.32802,4.54134l-2.36419,5.52419c1.06545,2.11525,1.77986,4.4513,2.05779,6.93489l5.37801,3.23064l-0.85252,6.2164
	l-6.43668,1.7718c-0.92126,1.90195-2.13026,3.64493-3.57233,5.17307l0.90434,6.80396l-5.39015,3.20829l-5.69979-4.14725
	c-0.9428,0.22145-1.91248,0.38009-2.90193,0.46809c-0.99355,0.08732-1.97528,0.10187-2.94182,0.04899l-4.8819,5.08334
	l-5.87136-2.213l-0.30434-6.85748c-1.68882-1.24954-3.18341-2.75495-4.42252-4.4659l-6.65032-0.61387l-1.93011-5.96988
	l4.72769-4.1237c-0.16209-2.49532,0.13192-4.91956,0.81072-7.19075l-3.29809-5.02205l3.46358-5.23055l5.61544,1.02288
	c1.94956-1.79603,4.25767-3.2216,6.81809-4.15938l1.73569-5.29873L41.96622,30.05164L41.96622,30.05164z M42.40197,70.58283
	c8.51442-0.75388,14.807-8.26734,14.05312-16.78175c-0.75382-8.51424-8.26551-14.80736-16.77974-14.05356
	c-8.51656,0.75262-14.80937,8.26596-14.05548,16.78037C26.37245,65.04445,33.88571,71.33631,42.40197,70.58283z"/>
<path class="st1" d="M125.43511,50.68621l-2.18986,5.12852c1.30692,2.39255,2.10089,4.98726,2.38421,7.62324l4.89422,2.93309
	l-0.84506,6.21622l-5.79123,1.60242c-0.98705,2.15296-2.36574,4.16956-4.13221,5.93736l0.83434,6.21803l-5.38808,3.21542
	l-5.40289-3.92161c-2.06087,0.4679-4.17723,0.61179-6.27129,0.43947l-4.75011,4.95461l-5.87154-2.20722l-0.31924-7.04169
	c-0.76164-0.59818-1.491-1.25657-2.17753-1.97451c-0.68855-0.72157-1.31287-1.47935-1.87505-2.26735l-7.01887-0.6395
	l-1.93728-5.96801l5.16653-4.51935c-0.0784-2.09937,0.16433-4.20676,0.72713-6.24294l-3.67276-5.57803l3.45812-5.23508
	l6.17297,1.1182c1.84795-1.68462,3.92517-2.96859,6.12309-3.85643l1.86362-5.71186l6.24828-0.56031l2.70712,5.02504
	c2.62018,0.40147,5.17485,1.3143,7.50603,2.72879l5.2227-1.95258L125.43511,50.68621L125.43511,50.68621z M94.04716,76.33312
	c5.90504,6.18014,15.70291,6.40425,21.88306,0.49921c6.18003-5.90488,6.40568-15.70172,0.50082-21.88176
	c-5.9054-6.1826-15.70332-6.40697-21.88345-0.50193C88.36497,60.35401,88.14129,70.15129,94.04716,76.33312z"/>
<path class="st1" d="M48.19296,82.99174l5.45406,1.16204c2.09634-1.74289,4.48977-3.02133,7.02197-3.8066L62.60545,74.98
	l6.26266-0.36692l2.68689,5.37464c2.30266,0.5543,4.54688,1.51916,6.62155,2.91245l5.94126-2.01529l4.19217,4.66863
	l-2.80862,6.05655c0.85574,1.93231,1.40418,3.98143,1.63805,6.06951l5.77608,3.70791l-1.03609,6.18655l-6.84866,1.66833
	c-0.44043,0.86251-0.94617,1.70493-1.51859,2.51678c-0.57558,0.81453-1.19906,1.57301-1.86415,2.27631l0.72311,7.01074
	l-5.48368,3.04951l-5.42908-4.20032c-2.04504,0.48093-4.15976,0.64825-6.26618,0.48779l-4.76702,4.67751l-5.8027-2.3861
	l-0.09057-6.27278c-2.00874-1.48924-3.66843-3.28056-4.96263-5.26654l-5.96372-0.72965l-1.7522-6.02369l4.41018-3.6235
	c-0.11024-2.64846,0.29394-5.33105,1.2334-7.89085l-2.9211-4.74935L48.19296,82.99174L48.19296,82.99174z M79.40057,108.85778
	c4.92832-6.98392,3.26283-16.64182-3.7211-21.57014c-6.98376-4.92825-16.64091-3.26445-21.56918,3.71928
	c-4.93067,6.98476-3.26541,16.64274,3.71852,21.57104C64.81354,117.50867,74.47075,115.84286,79.40057,108.85778z"/>
<g>
	<path class="st0" d="M567.74701,31.86798h9.00195v1.24219h-3.79883v11.21777h-1.36816V33.11017h-3.83496V31.86798z"/>
	<path class="st0" d="M578.51068,31.86798h2.50293l3.5293,10.53321l3.52832-10.53321h2.50293v12.45996h-1.38574v-10.9834h-0.25195
		l-3.61914,10.5332h-1.54883l-3.61914-10.5332h-0.25195v10.9834h-1.38672V31.86798z"/>
</g>
</svg>
