<svg width="98" height="74" viewBox="0 0 98 74" fill="none" xmlns="http://www.w3.org/2000/svg">
<g clip-path="url(#clip0_654_922)">
<path d="M1.0625 23.9298L48.7517 47.8597L95.7896 24.258V23.6017L48.7517 0L1.0625 23.9298Z" fill="#253069"/>
<path d="M27.2274 15.2598H23.4062V32.6596H27.2274V15.2598Z" fill="white"/>
<path d="M30.7812 32.6588H37.8839C40.9687 32.6588 44.3969 31.4548 44.3969 27.817C44.3969 25.5563 42.8784 23.8598 40.6021 23.5653V23.5163C42.3904 22.9509 43.589 21.6245 43.589 19.6815C43.589 15.8976 40.2834 15.2578 37.2464 15.2578H30.7812V32.6588ZM34.6013 18.5029H37.1975C38.3983 18.5029 39.769 18.8708 39.769 20.3213C39.769 21.7216 38.544 22.2141 37.3695 22.2141H34.6013V18.5029ZM34.6013 25.457H37.4915C38.7402 25.457 40.5768 25.7278 40.5768 27.3747C40.5768 28.8974 39.2304 29.4136 38.0296 29.4136H34.6013V25.457Z" fill="white"/>
<path d="M57.6313 16.6348C56.1607 15.3326 54.2756 14.8164 52.3169 14.8164C48.9135 14.8164 45.704 16.7594 45.704 20.4695C45.704 26.2698 53.8343 24.5485 53.8343 27.7457C53.8343 28.9722 52.4389 29.5618 51.1903 29.5618C49.9153 29.5618 48.6436 28.9474 47.8594 27.915L45.1406 30.9141C46.7828 32.438 48.7409 33.1015 50.9694 33.1015C54.5444 33.1015 57.6555 31.2577 57.6555 27.3756C57.6555 21.2802 49.6719 23.3203 49.6719 20.1485C49.6719 18.8464 51.1661 18.3561 52.2427 18.3561C53.1737 18.3561 54.3987 18.7239 55.0099 19.5098L57.6313 16.6348Z" fill="white"/>
<path d="M57.832 32.6582H62.0445L63.4888 28.9708H70.2238L71.717 32.6582H76.0278L68.4844 15.2578H65.3249L57.832 32.6582ZM68.9252 25.7278H64.6885L66.7956 20.3213L68.9252 25.7278Z" fill="white"/>
<path d="M6.12634 64.8252C5.82257 64.4967 5.52847 64.2775 5.24402 64.1682C4.95904 64.0588 4.67298 64.0039 4.38424 64.0039C3.95596 64.0039 3.56793 64.0798 3.22123 64.2328C2.87399 64.3852 2.57612 64.5963 2.32656 64.8662C2.077 65.136 1.88433 65.4511 1.74801 65.8109C1.61169 66.1706 1.54353 66.5579 1.54353 66.9721C1.54353 67.418 1.61169 67.829 1.74801 68.2044C1.88433 68.5798 2.077 68.9045 2.32656 69.1781C2.57612 69.4517 2.87399 69.6672 3.22123 69.8234C3.56793 69.9801 3.95596 70.0582 4.38424 70.0582C4.71967 70.0582 5.04491 69.9779 5.36048 69.8174C5.67659 69.6575 5.9707 69.4011 6.24334 69.0489L7.45949 69.9171C7.08541 70.4336 6.62922 70.809 6.09146 71.0438C5.55369 71.2781 4.9805 71.3955 4.37297 71.3955C3.73377 71.3955 3.14716 71.2916 2.61315 71.0848C2.07915 70.8774 1.6192 70.5844 1.23332 70.2047C0.847974 69.8255 0.545816 69.3699 0.327382 68.8377C0.108949 68.3062 0 67.7153 0 67.0663C0 66.4012 0.108949 65.7969 0.327382 65.2534C0.545816 64.71 0.847974 64.2462 1.23332 63.8628C1.6192 63.4798 2.07915 63.1847 2.61315 62.9773C3.14716 62.77 3.73377 62.666 4.37297 62.666C4.93381 62.666 5.4544 62.7657 5.93367 62.9655C6.41294 63.1648 6.85893 63.5035 7.27218 63.9802L6.12634 64.8252Z" fill="black"/>
<path d="M12.1944 70.4102H12.159C11.9566 70.7312 11.699 70.9639 11.3877 71.1083C11.0759 71.2531 10.733 71.3253 10.3589 71.3253C10.1013 71.3253 9.85012 71.2903 9.60432 71.2198C9.35905 71.1497 9.14062 71.0442 8.95009 70.9031C8.75849 70.7625 8.605 70.5864 8.488 70.3752C8.371 70.1641 8.3125 69.9174 8.3125 69.6358C8.3125 69.3309 8.36724 69.0708 8.47619 68.8559C8.58514 68.6404 8.73166 68.4611 8.91467 68.3162C9.09768 68.1713 9.31021 68.0561 9.55172 67.9699C9.79323 67.8837 10.0449 67.8196 10.3063 67.7765C10.5671 67.7334 10.8301 67.706 11.0952 67.6941C11.3604 67.6823 11.6099 67.6764 11.8434 67.6764H12.1944V67.5239C12.1944 67.1722 12.0731 66.9078 11.8316 66.7322C11.5901 66.5561 11.2826 66.4683 10.9079 66.4683C10.6117 66.4683 10.3353 66.5211 10.0782 66.6266C9.82061 66.7322 9.59895 66.8749 9.41165 67.0548L8.6753 66.3153C8.98659 65.9949 9.351 65.7638 9.76801 65.6232C10.185 65.4827 10.616 65.4121 11.0604 65.4121C11.4575 65.4121 11.7929 65.4574 12.0656 65.5468C12.3382 65.6372 12.5642 65.7525 12.744 65.8931C12.9232 66.0342 13.0612 66.1963 13.1588 66.38C13.256 66.5642 13.3263 66.7494 13.3692 66.9374C13.4121 67.1254 13.4374 67.3069 13.4454 67.483C13.4529 67.6591 13.4572 67.8137 13.4572 67.9462V71.1847H12.1944V70.4102ZM12.1123 68.662H11.8203C11.625 68.662 11.4071 68.6701 11.1656 68.6857C10.9235 68.7013 10.696 68.7385 10.4813 68.7972C10.2671 68.8559 10.0857 68.942 9.9376 69.0551C9.78948 69.1688 9.71541 69.3271 9.71541 69.5302C9.71541 69.6632 9.74493 69.7747 9.80343 69.8647C9.86193 69.9546 9.9376 70.0311 10.0315 70.0936C10.1249 70.156 10.2301 70.2013 10.3471 70.2287C10.4641 70.2562 10.5806 70.2697 10.6976 70.2697C11.1811 70.2697 11.5375 70.1544 11.7677 69.9234C11.9974 69.6928 12.1123 69.3778 12.1123 68.9787V68.662Z" fill="black"/>
<path d="M15.1641 65.5527H16.5675V66.4446H16.5906C16.7462 66.116 16.9684 65.8618 17.2572 65.6819C17.5454 65.5021 17.8765 65.4121 18.2511 65.4121C18.3365 65.4121 18.4202 65.4202 18.5023 65.4358C18.5839 65.4514 18.6676 65.4708 18.7535 65.494V66.855C18.6365 66.8243 18.5216 66.7984 18.4089 66.7791C18.2957 66.7597 18.1846 66.7494 18.0756 66.7494C17.7482 66.7494 17.4853 66.8103 17.2861 66.9315C17.0876 67.0527 16.9357 67.1916 16.8305 67.3478C16.7253 67.5045 16.655 67.6607 16.6201 67.8175C16.5847 67.9737 16.5675 68.0911 16.5675 68.1692V71.1847H15.1641V65.5527Z" fill="black"/>
<path d="M19.6797 63.6394C19.6797 63.4127 19.7629 63.2156 19.9309 63.047C20.0983 62.8789 20.3108 62.7949 20.5679 62.7949C20.825 62.7949 21.0418 62.8752 21.2168 63.0357C21.3923 63.1956 21.4798 63.3971 21.4798 63.6394C21.4798 63.8823 21.3923 64.0838 21.2168 64.2437C21.0418 64.4042 20.825 64.4845 20.5679 64.4845C20.3108 64.4845 20.0983 64.4005 19.9309 64.2324C19.7629 64.0638 19.6797 63.8667 19.6797 63.6394ZM19.8783 65.552H21.2812V71.184H19.8783V65.552Z" fill="black"/>
<path d="M23.0469 65.5527H24.38V66.4564H24.4031C24.5357 66.1748 24.7385 65.9302 25.0112 65.7229C25.2838 65.5161 25.6541 65.4121 26.1221 65.4121C26.4962 65.4121 26.8134 65.4746 27.0747 65.5995C27.3361 65.725 27.5481 65.8893 27.7118 66.0924C27.8755 66.2959 27.9925 66.5308 28.0628 66.7968C28.1331 67.0624 28.168 67.3403 28.168 67.6295V71.1847H26.7651V68.3334C26.7651 68.1772 26.757 68.0033 26.7415 67.8115C26.7259 67.6198 26.6851 67.4399 26.6191 67.2719C26.5525 67.1038 26.4495 66.9627 26.3089 66.8496C26.1688 66.736 25.9778 66.6794 25.7362 66.6794C25.5022 66.6794 25.3053 66.7187 25.1459 66.7968C24.9859 66.8749 24.8534 66.9805 24.7482 67.1135C24.643 67.2466 24.5668 67.399 24.5201 67.5708C24.4734 67.7431 24.4503 67.923 24.4503 68.1105V71.1847H23.0469V65.5527Z" fill="black"/>
<path d="M35.6732 65.5527V70.6801C35.6732 71.1885 35.611 71.6479 35.4859 72.0589C35.3614 72.4693 35.1687 72.8172 34.9074 73.1032C34.646 73.3887 34.317 73.6095 33.9193 73.7662C33.5222 73.9224 33.0504 74.0005 32.5046 74.0005C31.9824 74.0005 31.4876 73.9343 31.0201 73.8012C30.5521 73.6682 30.1195 73.4258 29.7224 73.0736L30.5639 71.9237C30.8446 72.1822 31.1371 72.3815 31.4409 72.5221C31.7446 72.6632 32.0956 72.7337 32.4933 72.7337C32.8282 72.7337 33.1105 72.6863 33.3408 72.5926C33.5705 72.4989 33.754 72.3696 33.8903 72.2054C34.0267 72.0411 34.1243 71.8434 34.1823 71.6129C34.2408 71.3824 34.2703 71.126 34.2703 70.8444V70.4339H34.2467C34.0438 70.7076 33.7749 70.9133 33.44 71.0496C33.1052 71.1864 32.7622 71.2553 32.4112 71.2553C31.9904 71.2553 31.6083 71.1788 31.2654 71.0264C30.9224 70.874 30.6283 70.6682 30.3825 70.4102C30.1372 70.1523 29.9483 69.8474 29.8158 69.4952C29.6832 69.1429 29.6172 68.7675 29.6172 68.369C29.6172 67.9543 29.6794 67.567 29.804 67.2072C29.9285 66.8475 30.112 66.5345 30.3535 66.2685C30.595 66.0029 30.8854 65.7934 31.2246 65.641C31.5638 65.4886 31.9513 65.4121 32.3876 65.4121C32.7853 65.4121 33.1556 65.4902 33.4985 65.6469C33.8415 65.8031 34.1141 66.0536 34.317 66.3977H34.3406V65.5527H35.6732ZM32.6801 66.6794C32.4305 66.6794 32.2046 66.7204 32.0022 66.8022C31.7994 66.8846 31.626 66.9983 31.4817 67.1426C31.3373 67.2875 31.2246 67.4636 31.1425 67.6704C31.0609 67.8778 31.0201 68.1067 31.0201 68.3571C31.0201 68.5839 31.0609 68.795 31.1425 68.9905C31.2246 69.186 31.3394 69.3584 31.4876 69.507C31.6357 69.6557 31.8112 69.7731 32.0135 69.8587C32.2164 69.9449 32.4348 69.988 32.6683 69.988C32.9259 69.988 33.1577 69.9449 33.3644 69.8587C33.5705 69.7731 33.746 69.6578 33.8903 69.513C34.0342 69.3681 34.1453 69.1941 34.2236 68.9905C34.3014 68.7875 34.3406 68.5683 34.3406 68.3334C34.3406 67.8406 34.192 67.4421 33.8962 67.1367C33.6 66.8318 33.1948 66.6794 32.6801 66.6794Z" fill="black"/>
<path d="M41.0508 62.877H42.524V71.1842H41.0508V62.877Z" fill="black"/>
<path d="M44.3594 65.5527H45.6925V66.4564H45.7156C45.8482 66.1748 46.051 65.9302 46.3237 65.7229C46.5963 65.5161 46.9666 65.4121 47.4346 65.4121C47.8087 65.4121 48.1259 65.4746 48.3872 65.5995C48.6486 65.725 48.8606 65.8893 49.0243 66.0924C49.188 66.2959 49.305 66.5308 49.3753 66.7968C49.4456 67.0624 49.4805 67.3403 49.4805 67.6295V71.1847H48.0776V68.3334C48.0776 68.1772 48.0695 68.0033 48.054 67.8115C48.0384 67.6198 47.9976 67.4399 47.9316 67.2719C47.865 67.1038 47.762 66.9627 47.6214 66.8496C47.4813 66.736 47.2903 66.6794 47.0487 66.6794C46.8147 66.6794 46.6178 66.7187 46.4584 66.7968C46.2984 66.8749 46.1659 66.9805 46.0607 67.1135C45.9555 67.2466 45.8793 67.399 45.8326 67.5708C45.7859 67.7431 45.7628 67.923 45.7628 68.1105V71.1847H44.3594V65.5527Z" fill="black"/>
<path d="M51.2344 65.5527H52.5675V66.4564H52.5906C52.7232 66.1748 52.926 65.9302 53.1987 65.7229C53.4713 65.5161 53.8416 65.4121 54.3096 65.4121C54.6837 65.4121 55.0009 65.4746 55.2622 65.5995C55.5236 65.725 55.7356 65.8893 55.8993 66.0924C56.063 66.2959 56.18 66.5308 56.2503 66.7968C56.3206 67.0624 56.3555 67.3403 56.3555 67.6295V71.1847H54.9526V68.3334C54.9526 68.1772 54.9445 68.0033 54.929 67.8115C54.9134 67.6198 54.8726 67.4399 54.8066 67.2719C54.74 67.1038 54.637 66.9627 54.4964 66.8496C54.3563 66.736 54.1653 66.6794 53.9237 66.6794C53.6897 66.6794 53.4928 66.7187 53.3334 66.7968C53.1734 66.8749 53.0409 66.9805 52.9357 67.1135C52.8305 67.2466 52.7543 67.399 52.7076 67.5708C52.6609 67.7431 52.6378 67.923 52.6378 68.1105V71.1847H51.2344V65.5527Z" fill="black"/>
<path d="M57.7812 68.369C57.7812 67.923 57.8607 67.518 58.0206 67.1545C58.1805 66.7909 58.3968 66.4796 58.6695 66.2216C58.9421 65.9636 59.2657 65.7638 59.6398 65.6232C60.0139 65.4827 60.4116 65.4121 60.8323 65.4121C61.2536 65.4121 61.6508 65.4827 62.0249 65.6232C62.3989 65.7638 62.7226 65.9636 62.9952 66.2216C63.2684 66.4796 63.4847 66.7909 63.6446 67.1545C63.804 67.518 63.884 67.923 63.884 68.369C63.884 68.8144 63.804 69.2194 63.6446 69.583C63.4847 69.9471 63.2684 70.2578 62.9952 70.5158C62.7226 70.7743 62.3989 70.9736 62.0249 71.1142C61.6508 71.2553 61.2536 71.3253 60.8323 71.3253C60.4116 71.3253 60.0139 71.2553 59.6398 71.1142C59.2657 70.9736 58.9421 70.7743 58.6695 70.5158C58.3968 70.2578 58.1805 69.9471 58.0206 69.583C57.8607 69.2194 57.7812 68.8144 57.7812 68.369ZM59.1842 68.369C59.1842 68.5877 59.2207 68.7993 59.2953 69.0024C59.3688 69.206 59.4783 69.3858 59.6226 69.542C59.7665 69.6988 59.9398 69.8237 60.1427 69.9174C60.3456 70.0117 60.5753 70.0585 60.8323 70.0585C61.09 70.0585 61.3197 70.0117 61.5225 69.9174C61.7249 69.8237 61.8982 69.6988 62.0426 69.542C62.187 69.3858 62.2959 69.206 62.37 69.0024C62.444 68.7993 62.4811 68.5877 62.4811 68.369C62.4811 68.1498 62.444 67.9386 62.37 67.7351C62.2959 67.532 62.187 67.3521 62.0426 67.1954C61.8982 67.0392 61.7249 66.9137 61.5225 66.82C61.3197 66.7263 61.09 66.6794 60.8323 66.6794C60.5753 66.6794 60.3456 66.7263 60.1427 66.82C59.9398 66.9137 59.7665 67.0392 59.6226 67.1954C59.4783 67.3521 59.3688 67.532 59.2953 67.7351C59.2207 67.9386 59.1842 68.1498 59.1842 68.369Z" fill="black"/>
<path d="M64.3984 65.5527H65.9302L67.427 69.4952H67.4501L68.9582 65.5527H70.3965L68.1869 71.1848H66.6901L64.3984 65.5527Z" fill="black"/>
<path d="M74.8389 70.4102H74.8035C74.6012 70.7312 74.3436 70.9639 74.0323 71.1083C73.7205 71.2531 73.3775 71.3253 73.0034 71.3253C72.7458 71.3253 72.4947 71.2903 72.2488 71.2198C72.0036 71.1497 71.7851 71.0442 71.5946 70.9031C71.403 70.7625 71.2495 70.5864 71.1325 70.3752C71.0155 70.1641 70.957 69.9174 70.957 69.6358C70.957 69.3309 71.0118 69.0708 71.1207 68.8559C71.2297 68.6404 71.3762 68.4611 71.5592 68.3162C71.7422 68.1713 71.9547 68.0561 72.1963 67.9699C72.4378 67.8837 72.6895 67.8196 72.9508 67.7765C73.2117 67.7334 73.4747 67.706 73.7398 67.6941C74.0049 67.6823 74.2545 67.6764 74.4879 67.6764H74.8389V67.5239C74.8389 67.1722 74.7176 66.9078 74.4761 66.7322C74.2346 66.5561 73.9271 66.4683 73.5525 66.4683C73.2562 66.4683 72.9798 66.5211 72.7227 66.6266C72.4651 66.7322 72.2435 66.8749 72.0562 67.0548L71.3198 66.3153C71.6311 65.9949 71.9955 65.7638 72.4125 65.6232C72.8296 65.4827 73.2605 65.4121 73.7049 65.4121C74.102 65.4121 74.4375 65.4574 74.7101 65.5468C74.9828 65.6372 75.2087 65.7525 75.3885 65.8931C75.5678 66.0342 75.7057 66.1963 75.8034 66.38C75.9005 66.5642 75.9708 66.7494 76.0137 66.9374C76.0567 67.1254 76.0819 67.3069 76.09 67.483C76.0975 67.6591 76.1018 67.8137 76.1018 67.9462V71.1847H74.8389V70.4102ZM74.7568 68.662H74.4649C74.2695 68.662 74.0516 68.6701 73.8101 68.6857C73.568 68.7013 73.3405 68.7385 73.1258 68.7972C72.9117 68.8559 72.7303 68.942 72.5821 69.0551C72.434 69.1688 72.3599 69.3271 72.3599 69.5302C72.3599 69.6632 72.3895 69.7747 72.448 69.8647C72.5065 69.9546 72.5821 70.0311 72.6761 70.0936C72.7694 70.156 72.8746 70.2013 72.9916 70.2287C73.1086 70.2562 73.2251 70.2697 73.3421 70.2697C73.8257 70.2697 74.182 70.1544 74.4123 69.9234C74.642 69.6928 74.7568 69.3778 74.7568 68.9787V68.662Z" fill="black"/>
<path d="M77.1172 66.7495V65.5527H78.2748V63.9219H79.6777V65.5527H81.2213V66.7495H79.6777V69.2135C79.6777 69.4952 79.7303 69.7182 79.8355 69.8825C79.9407 70.0467 80.1495 70.1286 80.4613 70.1286C80.5858 70.1286 80.7221 70.1151 80.8703 70.0877C81.0184 70.0602 81.1354 70.0155 81.2213 69.953V71.1379C81.0731 71.2085 80.8917 71.257 80.6776 71.2844C80.4629 71.3119 80.274 71.3254 80.1103 71.3254C79.7362 71.3254 79.4303 71.2844 79.1926 71.2026C78.9548 71.1202 78.7675 70.9952 78.6317 70.8272C78.4949 70.6586 78.4015 70.4496 78.351 70.1992C78.3001 69.9487 78.2748 69.6595 78.2748 69.331V66.7495H77.1172Z" fill="black"/>
<path d="M82.2734 63.6394C82.2734 63.4127 82.3566 63.2156 82.5246 63.047C82.6921 62.8789 82.9046 62.7949 83.1617 62.7949C83.4187 62.7949 83.6356 62.8752 83.8105 63.0357C83.986 63.1956 84.0735 63.3971 84.0735 63.6394C84.0735 63.8823 83.986 64.0838 83.8105 64.2437C83.6356 64.4042 83.4187 64.4845 83.1617 64.4845C82.9046 64.4845 82.6921 64.4005 82.5246 64.2324C82.3566 64.0638 82.2734 63.8667 82.2734 63.6394ZM82.472 65.552H83.8749V71.184H82.472V65.552Z" fill="black"/>
<path d="M85.3281 68.369C85.3281 67.923 85.4076 67.518 85.5675 67.1545C85.7274 66.7909 85.9437 66.4796 86.2164 66.2216C86.489 65.9636 86.8126 65.7638 87.1867 65.6232C87.5608 65.4827 87.9585 65.4121 88.3792 65.4121C88.8005 65.4121 89.1977 65.4827 89.5718 65.6232C89.9458 65.7638 90.2695 65.9636 90.5421 66.2216C90.8153 66.4796 91.0316 66.7909 91.1915 67.1545C91.3509 67.518 91.4309 67.923 91.4309 68.369C91.4309 68.8144 91.3509 69.2194 91.1915 69.583C91.0316 69.9471 90.8153 70.2578 90.5421 70.5158C90.2695 70.7743 89.9458 70.9736 89.5718 71.1142C89.1977 71.2553 88.8005 71.3253 88.3792 71.3253C87.9585 71.3253 87.5608 71.2553 87.1867 71.1142C86.8126 70.9736 86.489 70.7743 86.2164 70.5158C85.9437 70.2578 85.7274 69.9471 85.5675 69.583C85.4076 69.2194 85.3281 68.8144 85.3281 68.369ZM86.731 68.369C86.731 68.5877 86.7675 68.7993 86.8421 69.0024C86.9157 69.206 87.0251 69.3858 87.1695 69.542C87.3133 69.6988 87.4867 69.8237 87.6896 69.9174C87.8924 70.0117 88.1221 70.0585 88.3792 70.0585C88.6368 70.0585 88.8665 70.0117 89.0694 69.9174C89.2717 69.8237 89.4451 69.6988 89.5895 69.542C89.7338 69.3858 89.8428 69.206 89.9168 69.0024C89.9909 68.7993 90.0279 68.5877 90.0279 68.369C90.0279 68.1498 89.9909 67.9386 89.9168 67.7351C89.8428 67.532 89.7338 67.3521 89.5895 67.1954C89.4451 67.0392 89.2717 66.9137 89.0694 66.82C88.8665 66.7263 88.6368 66.6794 88.3792 66.6794C88.1221 66.6794 87.8924 66.7263 87.6896 66.82C87.4867 66.9137 87.3133 67.0392 87.1695 67.1954C87.0251 67.3521 86.9157 67.532 86.8421 67.7351C86.7675 67.9386 86.731 68.1498 86.731 68.369Z" fill="black"/>
<path d="M92.8789 65.5527H94.212V66.4564H94.2351C94.3677 66.1748 94.5706 65.9302 94.8432 65.7229C95.1158 65.5161 95.4862 65.4121 95.9542 65.4121C96.3282 65.4121 96.6454 65.4746 96.9068 65.5995C97.1682 65.725 97.3801 65.8893 97.5438 66.0924C97.7075 66.2959 97.8245 66.5308 97.8948 66.7968C97.9651 67.0624 98 67.3403 98 67.6295V71.1847H96.5971V68.3334C96.5971 68.1772 96.5891 68.0033 96.5735 67.8115C96.5579 67.6198 96.5171 67.4399 96.4511 67.2719C96.3846 67.1038 96.2815 66.9627 96.1409 66.8496C96.0008 66.736 95.8098 66.6794 95.5683 66.6794C95.3343 66.6794 95.1373 66.7187 94.9779 66.7968C94.818 66.8749 94.6854 66.9805 94.5802 67.1135C94.475 67.2466 94.3988 67.399 94.3521 67.5708C94.3054 67.7431 94.2824 67.923 94.2824 68.1105V71.1847H92.8789V65.5527Z" fill="black"/>
</g>
<defs>
<clipPath id="clip0_654_922">
<rect width="98" height="74" fill="white"/>
</clipPath>
</defs>
</svg>
